PathFileType   4   (X/Y/Z)																																																																																																																							
DataRate	CameraRate	NumFrames	NumMarkers	Units	OrigDataRate	OrigDataStartFrame	OrigNumFrames																																																																																																																
120	120	4	39	mm	120	1	156																																																																																																																
Frame#	Time	Sternum	R.Acromium	L.Acromium	Top.Head	R.ASIS	L.ASIS	V.Sacral	R.Thigh.Upper	R.Thigh.Front	R.Thigh.Rear	R.Knee.Lat	R.Knee.Med	R.Shank.Upper	R.Shank.Front	R.Shank.Rear	R.Ankle.Lat	R.Ankle.Med	R.Heel	R.Midfoot.Sup	R.Midfoot.Lat	R.Toe.Lat	R.Toe.Med	R.Toe.Tip	L.Thigh.Upper	L.Thigh.Front	L.Thigh.Rear	L.Knee.Lat	L.Knee.Med	L.Shank.Upper	L.Shank.Front	L.Shank.Rear	L.Ankle.Lat	L.Ankle.Med	L.Heel	L.Midfoot.Sup	L.Midfoot.Lat	L.Toe.Lat	L.Toe.Med	L.Toe.Tip																																																																															
 	 	X1	Y1	Z1	X2	Y2	Z2	X3	Y3	Z3	X4	Y4	Z4	X5	Y5	Z5	X6	Y6	Z6	X7	Y7	Z7	X8	Y8	Z8	X9	Y9	Z9	X10	Y10	Z10	X11	Y11	Z11	X12	Y12	Z12	X13	Y13	Z13	X14	Y14	Z14	X15	Y15	Z15	X16	Y16	Z16	X17	Y17	Z17	X18	Y18	Z18	X19	Y19	Z19	X20	Y20	Z20	X21	Y21	Z21	X22	Y22	Z22	X23	Y23	Z23	X24	Y24	Z24	X25	Y25	Z25	X26	Y26	Z26	X27	Y27	Z27	X28	Y28	Z28	X29	Y29	Z29	X30	Y30	Z30	X31	Y31	Z31	X32	Y32	Z32	X33	Y33	Z33	X34	Y34	Z34	X35	Y35	Z35	X36	Y36	Z36	X37	Y37	Z37	X38	Y38	Z38	X39	Y39	Z39	
																																																																																																																							
	1	0.26667	1526.983046	-0.000992919	1248.038444	1416.320471	-160.4625222	1368.384532	1420.414865	163.6853836	1381.691038	1522.571604	-9.995724821	1618.899906	1509.032993	-119.563877	905.8422013	1513.891677	121.1976851	897.7163118	1331.379021	-5.695750883	929.4602521	1434.027756	-151.852957	635.1654043	1475.77774	-72.89581202	579.3646048	1414.262848	-144.0380039	536.5713678	1373.78296	-128.7803171	469.7637577	1370.809599	-28.27664901	456.1830316	1321.202843	-139.9773559	421.0587303	1342.688685	-92.759033	352.5304961	1276.037936	-148.0192813	360.976525	1094.911825	-126.2596959	192.2615053	1108.75101	-48.83628676	195.7937422	1058.76625	-81.79932302	247.9593887	1106.48827	-50.48617332	129.6075874	1088.369349	-145.6838404	128.811876	1091.860964	-153.7519611	46.63835209	1103.545978	-57.55224411	48.13798447	1120.134598	-85.7250635	-3.315291968	1477.602242	155.8898652	659.4969076	1548.369167	93.1736068	639.7889006	1489.02925	143.1256019	569.7538737	1490.751931	130.2344758	459.8641213	1491.616609	33.90932835	460.6581913	1494.521998	146.028905	390.030601	1533.252339	97.96343807	347.0968972	1479.942553	155.397025	352.4709319	1497.426596	125.837295	80.47444679	1500.746793	46.58044596	100.7127791	1426.53331	79.29350631	68.10093163	1579.451612	55.87355549	68.26270467	1563.142321	143.3687015	68.49184594	1618.968001	152.6622596	47.08527841	1634.085538	62.03409965	46.85492803	1677.738384	84.48225282	46.97798676
	2	0.275	1532.64304	-0.000992919	1248.48062	1421.962245	-160.4625222	1368.809952	1426.054624	163.6853836	1382.117078	1528.175447	-9.995724821	1619.34141	1514.673038	-119.563877	906.1413412	1519.522608	121.1976851	898.0100092	1337.045659	-5.695750883	929.9585647	1442.777713	-151.852957	635.9920445	1485.485178	-72.89581202	580.9206106	1424.718521	-144.0380039	537.0713631	1385.398472	-128.7803171	469.5746092	1382.660101	-28.27664901	455.9445572	1333.28141	-139.9773559	421.0017914	1354.189921	-92.759033	352.2952088	1287.612593	-148.0192813	361.3017137	1105.073387	-126.2596959	194.1165942	1118.941801	-48.83628676	197.5322682	1069.070347	-81.79932302	249.8672873	1116.492206	-50.48617332	131.3948964	1098.371326	-145.6838404	130.6451169	1101.654629	-153.7519611	48.46300615	1113.343407	-57.55224411	49.9330135	1129.801546	-85.7250635	-1.562147924	1482.159373	155.8898652	659.5041743	1552.804545	93.1736068	639.364092	1493.037765	143.1256019	569.6929877	1494.088898	130.2344758	459.7947601	1494.958413	33.90932835	460.5835314	1497.283181	146.028905	389.9214295	1535.62219	97.96343807	346.6379149	1482.363384	155.397025	352.4956547	1497.377622	125.837295	80.35166288	1500.881399	46.58044596	100.5590218	1426.508229	79.29350631	68.0200386	1579.426556	55.87355549	68.15565004	1563.117306	143.3687015	68.38758153	1618.939322	152.6622596	46.97146354	1634.05682	62.03409965	46.73852682	1677.709686	84.48225282	46.85411732
	3	0.28333	1538.296131	-0.000992919	1248.912287	1427.601223	-160.4625222	1369.228635	1431.692041	163.6853836	1382.53624	1533.785037	-9.995724821	1619.77255	1520.298796	-119.563877	906.4392895	1525.139605	121.1976851	898.3027392	1342.69717	-5.695750883	930.4478038	1451.515556	-151.852957	636.8695084	1495.169527	-72.89581202	582.545285	1435.170689	-144.0380039	537.6511585	1397.02442	-128.7803171	469.4841559	1394.5223	-28.27664901	455.8087625	1345.386225	-139.9773559	421.0376906	1365.739244	-92.759033	352.1645107	1299.236815	-148.0192813	361.7083376	1115.353531	-126.2596959	196.002683	1129.249075	-48.83628676	199.3062575	1079.419378	-81.79932302	251.7520043	1126.697201	-50.48617332	133.2220603	1108.575423	-145.6838404	132.494307	1111.758832	-153.7519611	50.30826618	1123.449388	-57.55224411	51.76406491	1139.844923	-85.7250635	0.248936886	1486.696518	155.8898652	659.5092546	1557.216395	93.1736068	638.9347497	1497.021938	143.1256019	569.6328152	1497.396654	130.2344758	459.7301997	1498.271007	33.90932835	460.5136045	1500.019926	146.028905	389.8227793	1537.969498	97.96343807	346.197418	1484.765327	155.397025	352.5322151	1497.340074	125.837295	80.26459786	1501.024803	46.58044596	100.4397453	1426.494925	79.29350631	67.97238526	1579.413271	55.87355549	68.08603518	1563.104053	143.3687015	68.32030894	1618.922994	152.6622596	46.89617424	1634.040458	62.03409965	46.66106641	1677.69334	84.48225282	46.77038766
	4	0.29167	1543.935626	-0.000992919	1249.323907	1433.234463	-160.4625222	1369.6345	1437.324589	163.6853836	1382.942318	1539.405249	-9.995724821	1620.183936	1525.896998	-119.563877	906.7350278	1530.729736	121.1976851	898.5936811	1348.319268	-5.695750883	930.9196491	1460.235759	-151.852957	637.7938315	1504.826438	-72.89581202	584.2358092	1445.616191	-144.0380039	538.306627	1408.65933	-128.7803171	469.4875271	1406.395047	-28.27664901	455.7707485	1357.520315	-139.9773559	421.1481413	1377.362848	-92.759033	352.1261578	1310.932903	-148.0192813	362.1620992	1125.827793	-126.2596959	197.8224368	1139.747416	-48.83628676	201.0230398	1089.820948	-81.79932302	253.4668013	1137.255524	-50.48617332	134.9995017	1119.134725	-145.6838404	134.247777	1122.426849	-153.7519611	52.06601921	1134.11547	-57.55224411	53.53728134	1150.579136	-85.7250635	2.043886985	1491.197275	155.8898652	659.5046796	1561.58741	93.1736068	638.4905868	1500.961736	143.1256019	569.5655671	1500.650739	130.2344758	459.6627528	1501.529963	33.90932835	460.440687	1502.712401	146.028905	389.7274757	1540.279322	97.96343807	345.7721725	1487.132535	155.397025	352.5716314	1497.327699	125.837295	80.20452936	1501.18858	46.58044596	100.346709	1426.507181	79.29350631	67.94726614	1579.425536	55.87355549	68.04685994	1563.116341	143.3687015	68.28263283	1618.933311	152.6622596	46.85336739	1634.050754	62.03409965	46.61686997	1677.703646	84.48225282	46.72217869
